<svg id="Capa_1_copia" data-name="Capa 1 copia" xmlns="http://www.w3.org/2000/svg" viewBox="0 0 124.07 48.95">
  <defs>
    <style>
      .cls-1 {
        fill: #fff;
      }
    </style>
  </defs>
  <title>logo</title>
  <path class="cls-1" d="M4.39,11.59C5.46,10.31,6.4,9,7.5,7.9A23.16,23.16,0,0,1,20.59,1,23.84,23.84,0,0,1,43,8.68c0.69,0.74,1.25,1.59,1.9,2.37,0.4,0.48.31,0.75-.23,1.05-3.08,1.76-6.15,3.54-9.22,5.32-0.9.52-1.81,1-2.69,1.56a0.69,0.69,0,0,1-1.05-.14,9.13,9.13,0,0,0-13.68,0,0.62,0.62,0,0,1-.93.16q-6-3.51-12.08-7c-0.16-.09-0.3-0.21-0.64-0.45" transform="translate(-0.52 -0.59)"/>
  <path class="cls-1" d="M23,49.19A24,24,0,0,1,8.9,43.28,23.81,23.81,0,0,1,.82,28.64,23.85,23.85,0,0,1,2.75,14.82c0.44-1,.46-1,1.37-0.45C8,16.6,11.86,18.84,15.74,21.06a0.82,0.82,0,0,1,.44,1.16,9,9,0,0,0,6.6,11.58,1,1,0,0,1,.9,1.17c0,4.47,0,8.94,0,13.42,0,0.46,0,.93-0.69.81" transform="translate(-0.52 -0.59)"/>
  <g>
    <path class="cls-1" d="M49.5,42.87h2.42v1.6H49.5v3.28h3v1.6h-4.8V38.16h4.8v1.6h-3v3.12Z" transform="translate(-0.52 -0.59)"/>
    <path class="cls-1" d="M58.73,45.18v1.49c0,1.79-.9,2.81-2.62,2.81s-2.62-1-2.62-2.81V40.84c0-1.79.9-2.81,2.62-2.81s2.62,1,2.62,2.81v1.09H57.07v-1.2a0.93,0.93,0,1,0-1.82,0v6a0.93,0.93,0,1,0,1.82,0v-1.6h1.66Z" transform="translate(-0.52 -0.59)"/>
    <path class="cls-1" d="M61.4,41.24h0v8.11H59.79V38.16H62l1.78,6.7h0v-6.7h1.57V49.35H63.56Z" transform="translate(-0.52 -0.59)"/>
    <path class="cls-1" d="M66.49,40.84a2.67,2.67,0,1,1,5.34,0v5.82a2.67,2.67,0,1,1-5.34,0V40.84Zm1.76,5.93a0.93,0.93,0,1,0,1.82,0v-6a0.93,0.93,0,1,0-1.82,0v6Z" transform="translate(-0.52 -0.59)"/>
    <path class="cls-1" d="M73,38.16h1.76v9.6h2.89v1.6H73V38.16Z" transform="translate(-0.52 -0.59)"/>
    <path class="cls-1" d="M78.24,40.84a2.67,2.67,0,1,1,5.34,0v5.82a2.67,2.67,0,1,1-5.34,0V40.84Zm4.56-5.05-1.63,1.78H80l1.09-1.78H82.8Zm-2.8,11a0.93,0.93,0,1,0,1.82,0v-6a0.93,0.93,0,1,0-1.82,0v6Z" transform="translate(-0.52 -0.59)"/>
    <path class="cls-1" d="M87.36,43.11h2.46v3.55c0,1.79-.9,2.81-2.62,2.81s-2.62-1-2.62-2.81V40.84c0-1.79.9-2.81,2.62-2.81s2.62,1,2.62,2.81v1.09H88.16v-1.2a0.93,0.93,0,1,0-1.82,0v6a0.93,0.93,0,1,0,1.82,0V44.71h-0.8v-1.6Z" transform="translate(-0.52 -0.59)"/>
    <path class="cls-1" d="M91,38.16h1.76V49.35H91V38.16Z" transform="translate(-0.52 -0.59)"/>
    <path class="cls-1" d="M99.1,45.18v1.49c0,1.79-.9,2.81-2.62,2.81s-2.62-1-2.62-2.81V40.84c0-1.79.9-2.81,2.62-2.81s2.62,1,2.62,2.81v1.09H97.44v-1.2a0.93,0.93,0,1,0-1.82,0v6a0.93,0.93,0,1,0,1.82,0v-1.6H99.1Z" transform="translate(-0.52 -0.59)"/>
    <path class="cls-1" d="M100,40.84a2.67,2.67,0,1,1,5.34,0v5.82a2.67,2.67,0,1,1-5.34,0V40.84Zm1.76,5.93a0.93,0.93,0,1,0,1.82,0v-6a0.93,0.93,0,1,0-1.82,0v6Z" transform="translate(-0.52 -0.59)"/>
  </g>
  <path class="cls-1" d="M115.11,45.27v1.48c0,1.78-.89,2.79-2.6,2.79s-2.6-1-2.6-2.79V41c0-1.78.89-2.79,2.6-2.79s2.6,1,2.6,2.79v1.08h-1.65V40.86a0.92,0.92,0,1,0-1.81,0v6a0.92,0.92,0,1,0,1.81,0V45.27h1.65Z" transform="translate(-0.52 -0.59)"/>
  <path class="cls-1" d="M116.75,47.45l-1.18-4h1l0.7,2.71h0l0.7-2.71h0.89l-1.18,4v2h-0.93v-2Z" transform="translate(-0.52 -0.59)"/>
  <path class="cls-1" d="M124.59,45.27v1.48c0,1.78-.89,2.79-2.6,2.79s-2.6-1-2.6-2.79V41c0-1.78.89-2.79,2.6-2.79s2.6,1,2.6,2.79v1.08h-1.65V40.86a0.92,0.92,0,1,0-1.81,0v6a0.92,0.92,0,1,0,1.81,0V45.27h1.65Z" transform="translate(-0.52 -0.59)"/>
  <path class="cls-1" d="M45.69,33.38V36h0.93l0.27-.56H46.23V32.84h-3v8.09l0,0,0.49-.57V33.38h1.91Z" transform="translate(-0.52 -0.59)"/>
  <path class="cls-1" d="M44.89,34.23h-0.3V39.3a23.15,23.15,0,0,0,1.6-2.49h-1.3V34.23Z" transform="translate(-0.52 -0.59)"/>
  <path class="cls-1" d="M39.33,44.53l0.56-.43V34.23H39.56V36.8H35V29.46H48.82a24,24,0,0,0-1.91-15c-0.26-.52-0.49-0.6-1-0.3Q40,17.66,34,21.08a0.77,0.77,0,0,0-.43,1,11.09,11.09,0,0,1,.47,3.05,9.07,9.07,0,0,1-7.2,8.69,0.85,0.85,0,0,0-.76,1c0,2.26,0,4.52,0,6.78s0,4.56,0,6.85a0.62,0.62,0,0,0,.84.73c0.75-.12,1.51-0.18,2.26-0.32a24.49,24.49,0,0,0,9.36-3.81V44.53h0.76Z" transform="translate(-0.52 -0.59)"/>
  <path class="cls-1" d="M41.21,32.84h-3v2.58H36.36V30.87H48.07v1.58q0.31-1,.54-2V30.31H35.84V36h2.92v-2.6h1.91V43.47L41.21,43V32.84Z" transform="translate(-0.52 -0.59)"/>
  <path class="cls-1" d="M48.07,32.45a24.32,24.32,0,0,1-1.17,3h1.17v-3Z" transform="translate(-0.52 -0.59)"/>
  <path class="cls-1" d="M43.78,40.32v5.05h1.3v3.07H39.34V45.38h1.32V43.47l-0.78.64v0.43H39.33l-0.76.54v4.22h7.32V44.53h-1.3V39.3q-0.39.52-.8,1" transform="translate(-0.52 -0.59)"/>
  <path class="cls-1" d="M41.21,43v2.94H39.88v2h4.68v-2h-1.3v-5A26.88,26.88,0,0,1,41.21,43" transform="translate(-0.52 -0.59)"/>
  <path class="cls-1" d="M48.61,36h-2q-0.21.42-.44,0.82h3.21V29.46H48.82q-0.1.51-.21,1V36Z" transform="translate(-0.52 -0.59)"/>
  <path class="cls-1" d="M38.56,44.53v0.54l0.76-.54H38.56Z" transform="translate(-0.52 -0.59)"/>
</svg>
